<svg xmlns="http://www.w3.org/2000/svg" viewBox="0 0 55.6 49.5">
	<path fill="var(--aqua-dark)" d="M13 27.5A15 15 0 0 1 .6 20.2a3 3 0 0 1-.6-2 2.6 2.6 0 0 1 1.2-1.5 9 9 0 0 1 7.4-1c2.5.6 9.6 4 11.8 5.4.4-3.7-4-9.6-2.5-13s4.2-6.6 7.8-7.8c2.1-.6 4.9-.3 6 1.6.9 1.6.2 3.6-.4 5.3-1.3 3.5-2.1 10.2-3.6 13.6 6.6 0 12.6-3.4 19-2.5 2.7.4 5.6 1.1 7.5 3.1a4 4 0 0 1 1.3 3.3c-.4 2.2-3 3-5.2 3.1-5.5.5-16 0-21.3-1.7.7 6.7 5.8 13.3 5.3 20 0 1.2-.3 2.5-1.2 3.1-1.5 1-3.4-.5-4.5-1.9-3-4-4.6-13.8-6.2-18.6-2.8 3.7-8.5 11.1-13 10.5a2.6 2.6 0 0 1-1.4-.5 2.7 2.7 0 0 1-.7-1.8 9 9 0 0 1 .7-5c.7-1.5 3.4-4.2 5-4.4"/>
</svg>
