<svg xmlns="http://www.w3.org/2000/svg" viewBox="0 0 29.8 31.2">
	<path fill="var(--aqua-dark)" d="M18 22.4s.2 3 0 4.6a5.7 5.7 0 0 1-1 3.3 2.3 2.3 0 0 1-3.2.4A3.3 3.3 0 0 1 13 29a24.6 24.6 0 0 1-.2-8.3l-4.2 1c-1.7.3-3.6.7-5.1 0-1.9-1-2.7-3-3.3-5a3.2 3.2 0 0 1 0-2.2 3 3 0 0 1 1.2-1.2 12.9 12.9 0 0 1 12.9.3 22.4 22.4 0 0 1 7-13.2A1.3 1.3 0 0 1 22 0c.4 0 .7.4.9.7a16.2 16.2 0 0 1 2 6.4 7.8 7.8 0 0 1-.3 3.5 10.4 10.4 0 0 1-3.2 3.9 20 20 0 0 1 6.7 5.8 7.2 7.2 0 0 1 1.6 3.9 2.3 2.3 0 0 1-.3 1.3 2.5 2.5 0 0 1-2.3 1c-2.7-.2-8.4-4.3-9.1-4"/>
</svg>
