<svg xmlns="http://www.w3.org/2000/svg" viewBox="0 0 524.3 651.5">
  <path fill="currentColor" d="M501 175.2c21 63.8 20.5 134.4 19.4 202.4l-.8 2c-13 .2-27.2.4-41.7.4-21 0-42.4-.4-61.2-2a110.5 110.5 0 0 0 16.3-27.8c11.4-27.8 12.4-57.8 16-87.3 3.3-28 0-59.6-4.7-87.5a2 2 0 0 0 0-.5c6.8 1 13.8 1.9 20.6 2.5 12 1 24.2.8 36-2.1a.2.2 0 0 0 .2 0"/>
  <path fill="currentColor" d="M502.3 175.7c-11.9 3-24 3.2-36 2.1-56.7-4.8-115.7-25.6-150.8-73.5a353.8 353.8 0 0 1-24.4-40.6A246.8 246.8 0 0 1 141 182c-25 6.8-75 2.5-75 2.5-5.4-.5-10 3.6-13 8.3a16 16 0 0 0-.4 15.9 15.5 15.5 0 0 0 13.6 7.9l-.1.5c1.9 29 1.2 29.8 7.5 58s17.6 56 36.1 78a140.7 140.7 0 0 0 21 20.2c-31 6-66.1 7.8-97.5 4.7-6-47.2-8.2-74.7-6.9-122.2s10.5-95.6 33-137.3a223.4 223.4 0 0 1 86.4-88.4 213.6 213.6 0 0 1 119.8-27c44.9-1.3 94.7 13 133 37S468 99.6 488 140.5a271.1 271.1 0 0 1 14.3 35.3Z"/>
  <path fill="currentColor" d="M64 216.8c.5 9 .9 17.9 1.8 26.7a205.5 205.5 0 0 0 3.8 23A230.3 230.3 0 0 0 92 330.7a147.1 147.1 0 0 0 42.7 48 186.5 186.5 0 0 0 57 27.1c22.7 6.6 46.4 9.3 70 10 25.3.5 50.8-1 76-3.6a184 184 0 0 0 34.4-6.2 111 111 0 0 0 30.3-14.5 98.8 98.8 0 0 0 22.4-20.7 93.6 93.6 0 0 0 14.7-28c7.8-23.1 9.5-47.7 12-71.8a315 315 0 0 0 2.5-37.5 322.6 322.6 0 0 0-2.9-38q-1.2-9.2-2.8-18.5c-.4-2.8-4.8-1.6-4.4 1.3 4.2 24.5 6.7 49.5 5 74.4-.8 11.9-2.4 23.8-3.7 35.6a334.4 334.4 0 0 1-5.2 35.3 126.2 126.2 0 0 1-11 32.5 84.6 84.6 0 0 1-18.1 23.1 105 105 0 0 1-25.8 17c-10.4 5-21.6 7.8-33 9.7s-22.9 2.6-34.4 3.5c-12.6 1-25.2 1.6-37.9 1.8-24.2.5-48.5-.8-72.2-6a198 198 0 0 1-57.8-22 144 144 0 0 1-45.7-41.7A187 187 0 0 1 77.6 281a340 340 0 0 1-6.1-28.5 205.7 205.7 0 0 1-2-20.5l-1-15.1c-.1-3-4.7-3-4.5 0ZM287.5 64.4a222.3 222.3 0 0 1-31.2 44.4A235 235 0 0 1 216 144a246.2 246.2 0 0 1-47.1 25.7 251.3 251.3 0 0 1-25.6 8.9 131 131 0 0 1-25.9 4.6 235.1 235.1 0 0 1-56.7-2.6l-6.1-1a2.3 2.3 0 0 0-2.8 1.5 2.3 2.3 0 0 0 1.6 2.8 244.3 244.3 0 0 0 57 4.3 149.9 149.9 0 0 0 27.8-3.5 206.6 206.6 0 0 0 25.7-8.2 252.8 252.8 0 0 0 48.9-24.8 242.2 242.2 0 0 0 42.2-35 227.5 227.5 0 0 0 33-44l3.3-6c1.4-2.6-2.5-4.9-3.9-2.3Z"/>
  <path fill="currentColor" d="M273.4 30.8c6.9 20.4 17 39.6 28.7 57.6a257.3 257.3 0 0 0 17.7 24.5 153.3 153.3 0 0 0 18.9 19 182.7 182.7 0 0 0 45.3 28 243.7 243.7 0 0 0 51.4 15.5 283 283 0 0 0 26.7 3.9c10.9 1 21.8 1.4 32.6-.2q4.1-.6 8.2-1.6c2.9-.8 1.7-5.2-1.2-4.4-10.8 2.7-22 3-33.1 2.2-8.7-.6-17.4-1.7-26-3.2a249 249 0 0 1-50.9-14 183.2 183.2 0 0 1-45-25.4 156.7 156.7 0 0 1-19.3-17.9A203.3 203.3 0 0 1 310 92.1a266.8 266.8 0 0 1-29.6-55.3l-2.6-7.2c-1-2.8-5.3-1.6-4.4 1.2ZM265.6.5A216.3 216.3 0 0 0 164 18.2a220.8 220.8 0 0 0-77.5 57 238.7 238.7 0 0 0-47.7 86.5 372.7 372.7 0 0 0-14.9 104.5 648.3 648.3 0 0 0 5.5 98l1.7 13.5c.3 2.8 4.9 2.9 4.5 0-4-32.2-7.2-64.3-7.2-96.7 0-35 2-70 10.8-104 8.2-32.2 22.2-63 42.8-89.2a219.5 219.5 0 0 1 72-59.9 212 212 0 0 1 99-23.3c4.2 0 8.4.2 12.5.5 3 .2 3-4.4 0-4.6Z"/>
  <path fill="currentColor" d="M265.6 5.1c33.2-1 66.7 6.3 97.3 19a235.2 235.2 0 0 1 79 54 250.8 250.8 0 0 1 52.4 81.6 366 366 0 0 1 22.5 100.2c3.3 34.8 3.2 69.8 2.7 104.8l-.2 12.9c0 3 4.6 3 4.6 0 .6-35.5 1-71-1.6-106.5a394.6 394.6 0 0 0-20-102.8A259.8 259.8 0 0 0 452.5 83a239.8 239.8 0 0 0-77-58.2c-30.5-14.4-64-23-97.7-24.1q-6.1-.2-12.3 0c-2.9 0-2.9 4.6 0 4.5Z"/>
  <path fill="currentColor" d="M418 380.3c27 2.3 54 2.2 81 1.9l21.8-.3c3 0 3-4.6 0-4.5-27 .3-54 .8-81.1-.3-7.3-.3-14.5-.8-21.7-1.4a2.3 2.3 0 0 0-2.3 2.3 2.3 2.3 0 0 0 2.3 2.3Z"/>
  <path fill="currentColor" d="M520.8 377.3c-11.9 3-24 3.2-36 2.2q-10.4-.9-20.7-2.5a2 2 0 0 0-.1-.5 292 292 0 0 0 20.7 2.5c12 1 24.2.8 36-2.1l.1.4ZM127 371.2a331.5 331.5 0 0 1-72.8 5.6q-10.4-.4-20.8-1.4a2.3 2.3 0 0 0-2.3 2.3 2.3 2.3 0 0 0 2.3 2.2 334.4 334.4 0 0 0 74-1q10.5-1.3 20.8-3.3a2.3 2.3 0 1 0-1.2-4.4Zm94.2 39.1a149.4 149.4 0 0 1-.6 39.3 133.1 133.1 0 0 1-10.5 36.7 74 74 0 0 1-9.7 15.9 2.3 2.3 0 0 0 0 3.2 2.3 2.3 0 0 0 3.2 0 93.8 93.8 0 0 0 16.4-32.3 157 157 0 0 0 6.7-40.1 144.7 144.7 0 0 0-1-22.7 2.4 2.4 0 0 0-2.2-2.3 2.3 2.3 0 0 0-2.3 2.3Zm62.5 3.2a249 249 0 0 0 1.5 42.3 86.5 86.5 0 0 0 12.4 33.8 64.4 64.4 0 0 0 12.7 14.8 2.4 2.4 0 0 0 3.2 0 2.3 2.3 0 0 0 0-3.3 67.2 67.2 0 0 1-19-27.4 110 110 0 0 1-6.3-36.8c-.3-7.8-.1-15.6 0-23.4.1-2.9-4.4-2.9-4.5 0ZM147 225.6l-.7.2c-.2 0-.2-.1.2 0a1.6 1.6 0 0 0-.3 0 6.1 6.1 0 0 1-.7 0 1.5 1.5 0 0 0-.4 0h.3-.2a5.4 5.4 0 0 1-.7-.2l-.3-.1c-.4-.1.2 0 .2 0l-.7-.3-.2-.1-.2-.2c-.2 0 0 0 .2.2l-.5-.5c-.1-.2-.3-.4-.5-.4.3 0 .3.3.2 0l-.2-.2-.2-.3c-.2-.4.1.5 0 0a5.4 5.4 0 0 1-.2-.6 2.1 2.1 0 0 0 0-.5v.3-.7a1.2 1.2 0 0 0 0-.4c0 .3-.2.5 0 0v-.5c0-.2.2-.2.2-.3 0-.4-.3.5 0 0l.3-.5c0-.2.1-.2.2-.3.2-.4-.2.2 0 0l.4-.5.2-.2h.1l.1-.1.3-.2a3.4 3.4 0 0 0 .3-.2c.2 0-.5.2 0 0l.7-.1c.4-.1-.2 0-.2 0a1.6 1.6 0 0 0 .3 0 3.8 3.8 0 0 0 .7 0c-.3 0-.5-.1-.2 0h.4a3.2 3.2 0 0 0 .7.3h-.1.2l.7.5-.2-.1.3.2.5.6s-.3-.5 0-.2l.1.3a5 5 0 0 0 .3.7c0-.1-.2-.6 0-.2v.4a1.7 1.7 0 0 0 .1.3c-.1-.2 0-.5 0-.1v.7c0-.4.1-.5 0-.2v.4l-.2.3s.3-.5 0 0l-.1.3-.1.1c-.1.2-.1.2 0 0a2.1 2.1 0 0 1-.1.1 2 2 0 0 0-.2.2c.3-.3.3-.2 0 0s-.4.2 0 0 0 0-.1 0c-.5.1.5 0 0 0h-.2.2a1 1 0 0 0-.3 0c-.3-.1-.2-.3.1 0a1.7 1.7 0 0 0-.5-.3c.4 0 .4.4.2.1s.1.3 0 0a1.4 1.4 0 0 0-.2-.2l.1.2v.3-.2.3a1.6 1.6 0 0 0 0-.3c0 .4-.2.5 0 .3 0 0 .2-.4 0 0s0 0 0-.2c.2-.2-.5.3 0 .1l.2-.1c.3-.2-.2 0-.2 0a1.5 1.5 0 0 0 .3 0c.2-.2-.7 0-.2 0a1.1 1.1 0 0 0 .2 0c-.3.1-.5-.1-.2 0 .5.1 0 0-.1 0s.5.2 0 0-.3-.5-.1-.2a2.4 2.4 0 0 0 .1.2c-.3-.3-.1-.5 0-.2a2.8 2.8 0 0 0 0 .3c-.2-.4 0-.5 0-.2a1.7 1.7 0 0 0 0 .4c-.1-.5.1-.5 0-.2v.3c-.2.3-.2 0 0-.2a1.4 1.4 0 0 0-.1.2c-.2.4.3-.4 0-.2h.2a2.3 2.3 0 0 0-.2 0c-.3.3.5 0 .1 0a1.2 1.2 0 0 0-.3.2l.3-.1h-.1c-.5 0 .4.1.1 0l-.4-.1c-.3 0 0-.2.2 0a1.6 1.6 0 0 0-.4-.1c-.2-.2 0-.2.2.1a1.1 1.1 0 0 0-.3-.3c.3.1.3.5.1.1-.2-.4 0 .4 0 .1a2.3 2.3 0 0 0 0-.3s0 .6 0 0v.2-.5c0 .4-.2.4 0 .2l.2-.4s-.4.4 0 .1c0 0 .4-.4 0-.2h.2l.2-.1c.2-.1.1-.1-.2 0a2.6 2.6 0 0 1 .3 0h-.3.2a1.5 1.5 0 0 0 .4 0h-.2.2c.3.1-.5-.3 0 0l.3.3-.1-.1a2.7 2.7 0 0 0 .3.3c-.3-.1-.2-.3 0 0l.1.3s-.2-.5 0 0a5.2 5.2 0 0 1 .2.5 2.4 2.4 0 0 0 1 1.5 2.5 2.5 0 0 0 2 .2 2.5 2.5 0 0 0 1.4-1.1 3 3 0 0 0 .3-1.9c-.5-3.9-5.4-6.3-8.7-4a5.9 5.9 0 0 0-2.7 4.8 5.3 5.3 0 0 0 2.8 4.5 5.4 5.4 0 0 0 5.2 0 5.2 5.2 0 0 0 2.4-4.5 4.8 4.8 0 0 0-7.6-4 4.8 4.8 0 0 0-2 5.2 5.3 5.3 0 0 0 3.7 3.5 5.5 5.5 0 0 0 5.2-1.3 7 7 0 0 0 2-5c.1-3.4-2.4-6.3-5.5-7.5a7.7 7.7 0 0 0-8.6 2.4 8.5 8.5 0 0 0-1.2 9.3 9 9 0 0 0 7.9 4.6 8.1 8.1 0 0 0 2.3-.4 2.5 2.5 0 1 0-1.2-4.6Zm225.7-.9a6.6 6.6 0 0 1-.5.4c-.2.1-.9.3-.1 0a13 13 0 0 1-1.3.4h.3-1.3.3a2.1 2.1 0 0 1-.7 0l-.6-.3.2.1a3.2 3.2 0 0 1-.3-.1 4.3 4.3 0 0 1-.6-.3l-.2-.2c.7.4.3.2 0 0l-.4-.4.1.1-.1-.2a4.2 4.2 0 0 1-.3-.5c0-.2-.1-.5 0 .2v-.4l-.2-.6v-.3c.2.8 0 .4 0 .2a5.9 5.9 0 0 1 0-.6c0-.3.2-1 0-.2a9.5 9.5 0 0 1 .3-1.1l-.1.2.1-.3a4.5 4.5 0 0 1 .3-.6c.2-.2.4-.3 0 .2l.1-.3a4.9 4.9 0 0 1 .5-.4c.1-.2.3-.1-.2.2a2.8 2.8 0 0 0 .3-.2l.6-.4c-.7.4-.2.1 0 0a5.7 5.7 0 0 1 .6-.1h-.2.2a5.3 5.3 0 0 1 .7 0h.3c.5 0-.5-.1-.2 0l.6.1.5.2-.2-.1.4.2a5.7 5.7 0 0 1 .5.3c.3.3-.4-.3-.2-.1l.2.2.4.4c-.5-.4-.3-.4-.1-.2a1.8 1.8 0 0 1 .1.3 2.7 2.7 0 0 1 .2.3c.2.4-.2-.5 0-.2l.1.6c.1.2 0 .8 0 0v.6a5.1 5.1 0 0 1 0 .6v-.3.3a5 5 0 0 1-.2.6l-.1.3c-.2.4.3-.6 0-.2l-.2.5-.2.3c-.2.3.4-.5.1-.2a4.7 4.7 0 0 1-.3.4l-.2.2c-.3.2.5-.4 0 0l-.4.2c-.4.3.4-.1.1 0h-.3c-.2.2-.4.2-.6.2.7-.1.3 0 .1 0h-.8.3c-.2 0-.5 0-.7-.2l.2.1-.3-.2c-.4-.2.1.2.1.2l-.3-.4c-.3-.2.2.3.2.3a1 1 0 0 1-.2-.3l-.2-.3.1.2-.1-.6c.1.7 0 .5 0 .2v-.4c0-.4-.2.7 0 .2v-.4.3a3 3 0 0 0 .1-.4c.2-.3-.4.5 0 .2l.1-.2c-.4.4-.4.2-.1.1l.3-.1c-.6.3-.5.1-.2 0h.3c-.7.2-.5 0-.3 0h.4-.3.3c.3.2.3.3-.2 0l.3.1c.4.2-.5-.4-.2-.1l.2.2-.1-.1-.1-.2v-.3.3c0 .5.1-.6 0-.2 0 0-.2.5 0 .1s-.3.5 0 .1-.5.4 0 0c-.4.3.6-.1.1 0h.3-.4a2.4 2.4 0 0 0-1.7.7 2.5 2.5 0 0 0-.8 1.8 2.4 2.4 0 0 0 .8 1.7 2.8 2.8 0 0 0 1.7.7 4.6 4.6 0 0 0 4.1-2.1 4.9 4.9 0 0 0 .6-4.3 4.8 4.8 0 0 0-3.4-3 5.5 5.5 0 0 0-4.3.6 5.5 5.5 0 0 0-2.4 4.3 6.2 6.2 0 0 0 1.5 4.3c2 2.5 6 2.7 8.6 1.1a8 8 0 0 0 3.6-6.7 7.4 7.4 0 0 0-3.8-6.6 8.4 8.4 0 0 0-8 0 8.2 8.2 0 0 0-.2 13.9 8.7 8.7 0 0 0 7.6.8 7.8 7.8 0 0 0 1.9-1 2.6 2.6 0 0 0 1.1-1.4 2.5 2.5 0 0 0-3.6-2.8Zm-115.1 28.9a49.7 49.7 0 0 1-9.6 17.8c-1 1.3-1 3.8 1 4.1l15.7 2.6a2.5 2.5 0 0 0 3-1.7 2.5 2.5 0 0 0-1.7-3l-15.7-2.6 1.1 4.1a55.7 55.7 0 0 0 10.9-20c1-3-3.8-4.3-4.7-1.3Zm-22.1 93a53.6 53.6 0 0 0 21.7 3.5 2.5 2.5 0 1 0 0-4.9 50.1 50.1 0 0 1-20.4-3.3 2.5 2.5 0 1 0-1.3 4.7ZM66 181.4c-7.3-.4-13.6 6.4-16.1 12.7a17.7 17.7 0 0 0 16.5 24.4c2.9 0 2.9-4.6 0-4.6A13.2 13.2 0 0 1 53 200.3a15.7 15.7 0 0 1 4.2-9.7c2.3-2.6 5-4.8 8.7-4.6 3 .2 3-4.4 0-4.6Z"/>
  <path fill="currentColor" d="m65.4 203.6-.8-.8-.2-.2.2.2-.3-.5-1-1.6c.4.5.2.3 0 .1s0-.3 0-.4a6.9 6.9 0 0 1-.2-.8c-.1-.5 0 .3 0 .1v-1.2a1.7 1.7 0 0 0 .1-.3c-.1.4-.2.5 0 .3a1.4 1.4 0 0 1 0-.2l.2-.3-.2.2.5-.5c.1-.1-.4.3 0 0l.3-.2.3-.1c-.4.3-.4.1-.1 0a6.7 6.7 0 0 1 .8-.2h.4-.2.3a2.3 2.3 0 1 0 0-4.6 8.4 8.4 0 0 0-4.8 1.7 5.9 5.9 0 0 0-2 3.5c-.7 3.4 1 6.7 3.4 9a2.3 2.3 0 1 0 3.2-3.2ZM184.5 501a217.5 217.5 0 0 0 56.5 11.3 226 226 0 0 0 56-4 300 300 0 0 0 32.2-8c2.8-.9 1.6-5.3-1.2-4.4a268.7 268.7 0 0 1-55.9 11.4 206.5 206.5 0 0 1-54.8-2.5 222 222 0 0 1-31.5-8.3c-2.8-1-4 3.5-1.2 4.4Z"/>
  <path fill="currentColor" d="M184.5 496.5a595 595 0 0 0-54.3 10.5c-17.6 4.5-35 10.7-50.8 19.9a151.6 151.6 0 0 0-37 30.4A172 172 0 0 0 16 597a182.8 182.8 0 0 0-15 45.8l-1 5.8a2.4 2.4 0 0 0 1.6 2.8 2.3 2.3 0 0 0 2.8-1.6 179 179 0 0 1 13.1-45.2A170.6 170.6 0 0 1 42 564.7a150.2 150.2 0 0 1 34.8-30.9c15-9.5 31.7-16.1 48.9-20.9 17.5-4.9 35.4-8 53.2-10.9l6.8-1a2.3 2.3 0 0 0 1.6-2.9 2.3 2.3 0 0 0-2.9-1.6Zm143.4 3.8c18 2.9 36 5.8 53.6 10.3a197.7 197.7 0 0 1 50 19.4 147.6 147.6 0 0 1 36.3 29.6 168.1 168.1 0 0 1 25.9 39.1 177.8 177.8 0 0 1 14.5 44.6l1 5.9a2.3 2.3 0 0 0 2.8 1.6 2.3 2.3 0 0 0 1.6-2.9 183 183 0 0 0-13.6-46.1 174.2 174.2 0 0 0-25-40.7 154 154 0 0 0-35.6-31.7 185.1 185.1 0 0 0-49.5-21.3 476 476 0 0 0-54.1-11.1l-6.7-1.1a2.4 2.4 0 0 0-2.8 1.6 2.3 2.3 0 0 0 1.6 2.8Z"/>
  <path fill="currentColor" d="M185.7 501a87.5 87.5 0 0 1 21.2-1.8c2.9 0 2.9-4.5 0-4.6a93 93 0 0 0-22.4 2c-2.9.6-1.7 5 1.2 4.3Zm143.4-5.1a76.5 76.5 0 0 0-23.3-.7 2.3 2.3 0 0 0-1.6 2.8 2.3 2.3 0 0 0 2.8 1.6 69.6 69.6 0 0 1 21 .7 2.3 2.3 0 0 0 2.7-1.6 2.3 2.3 0 0 0-1.6-2.8Z"/>
</svg>
