<svg xmlns="http://www.w3.org/2000/svg" fill="none" viewBox="0 0 91 106">
	<g fill="var(--aqua-dark)">
		<path d="M10.84 20.6C24.91 35 40.2 55.92 37.27 77.27 35.81 87.9 29.84 96.52 23.72 105 48.77 108.19 77 91.45 75.09 63.57 73 31.64 37.83 20.05 10.87 19.8m57.9-7.62C68.65 9.56 67 2.62 66.9 0c2.34 1.81 6.1 8.09 8.17 10.18.3.34.65.62 1.06.81.38.13.78.18 1.18.16l12.8.16c-2.78 2.94-6.67 4.51-10.19 6.5-.34.16-.62.4-.82.72-.11.27-.16.55-.14.84l-.13 12.28a74.51 74.51 0 0 1-6.91-9.73A60.08 60.08 0 0 1 60.24 24c2.55-3.72 6-8.1 8.53-11.81"/>
		<path d="M5.69 77c-.09-3-.69-6.34-.77-9.25a52.1 52.1 0 0 1 5.89 6.87c.22.37.53.68.91.89.3.1.62.14.94.11l9-.2a32.58 32.58 0 0 1-6.07 5.11c-.31.17-.58.42-.77.72a2 2 0 0 0-.14.92l.1 7.2a73.26 73.26 0 0 1-6.9-7.87S2 83.73 0 83.83c1.83-2.35 3.73-4.62 5.69-6.83Z"/>
	</g>
</svg>
