<svg xmlns="http://www.w3.org/2000/svg" fill="none" viewBox="0 0 50 67">
	<g clip-path="url(#a)">
		<path fill="var(--aqua-dark)" fill-rule="evenodd" d="M23.4 65.5c1.4 1 3.1 1.2 4.4 0 12-11.8 22.3-28.6 21.5-43a23.1 23.1 0 0 0-8.8-17.3A30 30 0 0 0 20.9.1a24 24 0 0 0-16 6.2C.8 10.5-.1 16.4 0 22c.4 15.3 11.4 35.3 23.4 43.5ZM11.7 23.3c.4 3.8 1.8 9.7 9.4 12.1H21c4 1.2 8 1.2 11.3-1.3a13.3 13.3 0 0 0 4.8-7.8 14.5 14.5 0 0 0-1.3-10.2A13 13 0 0 0 27 9.7C18 8 10.7 16.3 11.7 23.3Z" clip-rule="evenodd"/>
	</g>
	<defs>
		<clipPath id="a">
			<path fill="#fff" d="M0 0h49.4v66.3H0z"/>
		</clipPath>
	</defs>
</svg>
